<?xml version="1.0" standalone="no"?>
<!DOCTYPE svg PUBLIC "-//W3C//DTD SVG 20010904//EN"
 "http://www.w3.org/TR/2001/REC-SVG-20010904/DTD/svg10.dtd">
<svg version="1.0" xmlns="http://www.w3.org/2000/svg"
 width="1250.000000pt" height="1250.000000pt" viewBox="0 0 1250.000000 1250.000000"
 preserveAspectRatio="xMidYMid meet">

<g transform="translate(0.000000,1250.000000) scale(0.100000,-0.100000)"
fill="#000000" stroke="none">
<path d="M5985 11943 c-129 -6 -409 -33 -550 -54 -1057 -154 -2018 -586 -2860
-1285 -165 -137 -559 -531 -695 -693 -306 -369 -527 -708 -738 -1131 -312
-624 -488 -1226 -568 -1940 -22 -196 -30 -764 -15 -986 79 -1119 472 -2164
1149 -3054 162 -213 298 -367 512 -580 300 -300 517 -479 855 -705 808 -540
1663 -843 2655 -942 244 -24 786 -24 1030 0 929 93 1749 368 2515 845 1283
799 2211 2105 2540 3574 105 470 140 836 132 1366 -6 410 -31 654 -103 1012
-222 1110 -807 2176 -1627 2966 -1152 1110 -2648 1678 -4232 1607z m760 -827
c178 -20 415 -60 575 -96 1930 -440 3416 -2022 3744 -3987 54 -322 61 -412 61
-823 0 -307 -4 -415 -18 -535 -86 -718 -310 -1384 -665 -1975 -382 -637 -911
-1186 -1534 -1594 -687 -449 -1444 -709 -2288 -787 -198 -18 -639 -16 -848 5
-1001 98 -1912 478 -2687 1120 -154 128 -449 418 -577 568 -444 520 -756 1073
-961 1703 -105 323 -171 629 -214 1000 -25 213 -25 786 0 1005 94 829 354
1552 803 2225 670 1007 1704 1742 2867 2040 305 77 543 115 937 149 111 9 673
-3 805 -18z"/>
<path d="M4680 9510 c-454 -9 -548 -14 -660 -36 -511 -103 -911 -506 -1026
-1034 -15 -67 -19 -125 -18 -280 0 -315 30 -406 226 -690 57 -82 105 -149 108
-149 6 -1 167 246 208 319 17 30 56 120 87 200 266 686 599 1022 1110 1121
242 48 520 67 1255 87 256 8 305 7 272 -5 -7 -3 -79 -49 -160 -103 -567 -380
-981 -874 -1344 -1605 -100 -202 -137 -248 -233 -296 -100 -49 -149 -54 -512
-53 l-333 1 0 -26 c0 -70 33 -218 58 -264 56 -104 155 -137 546 -182 71 -8
131 -16 133 -18 2 -2 -15 -67 -37 -145 -193 -683 -512 -973 -1178 -1072 -75
-11 -208 -23 -295 -27 l-158 -6 6 -31 c12 -57 103 -230 152 -288 93 -112 218
-189 370 -230 120 -32 317 -29 486 6 526 109 968 396 1303 846 128 171 211
309 345 573 162 319 221 382 374 402 48 7 151 -7 200 -25 22 -8 22 -9 9 -67
-8 -32 -23 -112 -33 -178 -77 -477 11 -797 306 -1115 34 -36 64 -62 67 -59 4
4 53 132 110 285 132 356 174 461 246 610 258 528 648 815 1223 900 164 24
476 28 824 10 172 -9 356 -16 410 -16 l98 0 -125 -71 c-456 -257 -792 -559
-1029 -923 -67 -104 -95 -157 -229 -436 -159 -329 -349 -520 -598 -600 -96
-30 -262 -53 -336 -45 -24 2 -86 10 -139 16 -93 11 -97 11 -132 -12 -42 -28
-44 -41 -22 -137 26 -108 74 -176 154 -217 73 -37 114 -44 321 -60 107 -8 230
-22 273 -31 l77 -17 -17 -26 c-9 -14 -82 -129 -161 -256 -337 -539 -490 -727
-685 -849 -246 -153 -540 -177 -847 -67 -46 16 -86 28 -88 27 -15 -15 106
-278 163 -356 86 -117 222 -210 359 -245 140 -35 386 -27 622 20 373 75 699
257 976 543 179 186 299 360 461 667 113 216 183 320 277 415 170 169 359 229
637 200 225 -23 313 -2 416 98 73 70 165 215 191 300 l7 22 -544 0 -545 0 29
78 c15 42 64 179 108 303 122 345 206 531 367 810 262 458 562 755 917 906 45
19 96 49 114 67 18 17 54 79 81 137 l49 105 -91 56 c-50 31 -111 61 -135 68
-58 15 -2460 17 -2781 1 -365 -17 -546 -69 -791 -225 -147 -93 -257 -130 -424
-142 -79 -6 -311 9 -356 22 -14 4 -5 35 58 207 226 618 382 942 581 1210 207
279 423 463 724 617 174 89 177 92 253 238 44 84 52 67 -73 152 -40 27 -90 54
-110 59 -49 12 -1970 21 -2502 11z"/>
</g>
</svg>
