<svg width="59" height="60" viewBox="0 0 59 60" fill="none" xmlns="http://www.w3.org/2000/svg">
<path d="M29.5 0.9375C13.4444 0.9375 0.4375 13.9462 0.4375 30C0.4375 46.0537 13.4462 59.0625 29.5 59.0625C45.5556 59.0625 58.5625 46.0537 58.5625 30C58.5625 13.9462 45.5537 0.9375 29.5 0.9375ZM43.7744 20.8481L39.0044 43.3256C38.6519 44.9194 37.7031 45.3056 36.3794 44.5556L29.1137 39.2006L25.6094 42.5756C25.2231 42.9619 24.895 43.29 24.145 43.29L24.6606 35.895L38.125 23.73C38.7119 23.2144 37.9956 22.9219 37.2212 23.4375L20.5806 33.9131L13.4088 31.6744C11.8506 31.1831 11.815 30.1162 13.7369 29.3662L41.7569 18.5606C43.0581 18.0919 44.1944 18.8775 43.7725 20.8463L43.7744 20.8481Z" fill="#689AD1"/>
</svg>
