<svg width="66" height="68" viewBox="0 0 66 68" fill="none" xmlns="http://www.w3.org/2000/svg">
<path fill-rule="evenodd" clip-rule="evenodd" d="M6.03 10.0187C6.30428 9.79373 6.62877 9.63396 6.9788 9.55422L7.49176 9.43736L8.36104 9.23932L8.96497 9.10174L48.0074 0.207316C52.6598 -0.852557 57.2305 2.26507 57.9128 6.96371L58.2232 9.10174L58.2687 9.41495C63.3303 9.5384 67.3953 13.6584 67.3953 18.7227V59.6894C67.3953 64.8315 63.2045 69 58.0349 69H9.36047C4.19082 69 0 64.8315 0 59.6894V18.7227C0 14.7474 2.5047 11.354 6.03 10.0187ZM53.1792 9.10174L31.3263 9.10174L49.122 5.04764C50.9302 4.63571 52.7066 5.84743 52.9718 7.6736L53.1792 9.10174ZM9.36047 14.3778H58.0349C60.4474 14.3778 62.4031 16.3231 62.4031 18.7227V25.7096H62.4031H45.1318C39.9622 25.7096 35.7713 29.8781 35.7713 35.0202V43.3918C35.7713 48.534 39.9622 52.7024 45.1318 52.7024H62.4031H62.4031V59.6894C62.4031 62.089 60.4474 64.0343 58.0349 64.0343H9.36047C6.94797 64.0343 4.99225 62.089 4.99225 59.6894V18.7227C4.99225 16.3231 6.94797 14.3778 9.36047 14.3778ZM45.1318 30.6753H62.4031V47.7368H45.1318C42.7193 47.7368 40.7636 45.7915 40.7636 43.3918V35.0202C40.7636 32.6206 42.7193 30.6753 45.1318 30.6753ZM54.9627 39.4055C54.9627 41.6909 52.8673 43.5436 50.2825 43.5436C47.6977 43.5436 45.6023 41.6909 45.6023 39.4055C45.6023 37.1201 47.6977 35.2675 50.2825 35.2675C52.8673 35.2675 54.9627 37.1201 54.9627 39.4055Z" fill="#689AD1"/>
</svg>
