<svg width="70" height="57" viewBox="0 0 70 57" fill="none" xmlns="http://www.w3.org/2000/svg">
<path d="M56.5398 41.1267H38.3522C39.218 40.756 40.0289 40.2177 40.7347 39.5118C43.7087 36.5374 43.7087 31.6977 40.7345 28.7234L24.8678 12.8569C24.4576 12.4467 23.9012 12.2161 23.3211 12.2161H6.24682C2.80232 12.2161 0 15.0184 0 18.4629V33.3755C0 36.8198 2.80232 39.6222 6.24682 39.6222H14.5495L30.7919 55.749C31.2035 56.1575 31.7581 56.3842 32.333 56.3842C32.3928 56.3842 32.4527 56.3817 32.5125 56.3768L56.1627 54.4308C57.4247 54.3268 59.1534 54.1842 60.6657 53.588C63.7131 52.3864 64.1681 50.0448 64.1681 48.7559C64.1681 44.5494 60.7459 41.1267 56.5398 41.1267ZM13.3837 35.2473H6.24695C5.21473 35.2473 4.37514 34.4076 4.37514 33.3756V18.4629C4.37514 17.4308 5.21486 16.5911 6.24695 16.5911H13.3837V35.2473ZM59.0607 49.518C58.1498 49.8773 56.7934 49.9891 55.8035 50.0707L33.1588 51.934L17.7585 36.6433V16.5911H22.4149L37.6409 31.817C38.9093 33.0856 38.9093 35.15 37.6409 36.4186C36.3721 37.6869 34.3078 37.6869 33.0393 36.4186C33.0274 36.4067 33.0155 36.3949 33.0034 36.3834L25.661 29.0411C24.8068 28.1867 23.4217 28.1867 22.5675 29.0411C21.7133 29.8953 21.7133 31.2804 22.5675 32.1346L35.2939 44.8611C35.7041 45.2714 36.2605 45.5019 36.8406 45.5019H56.5396C58.3335 45.5019 59.793 46.9618 59.793 48.7562C59.7931 49.0101 59.7931 49.2294 59.0607 49.518ZM67.8125 10.22H60.3951V2.80298C60.3951 1.59493 59.4158 0.615479 58.2076 0.615479H48.6031C47.3949 0.615479 46.4156 1.59493 46.4156 2.80298V10.22H38.9992C37.791 10.22 36.8117 11.1994 36.8117 12.4075V22.012C36.8117 23.22 37.791 24.1995 38.9992 24.1995H46.4156V31.6165C46.4156 32.8246 47.3949 33.804 48.6031 33.804H58.2076C59.4158 33.804 60.3951 32.8246 60.3951 31.6165V24.1995H67.8125C69.0207 24.1995 70 23.22 70 22.012V12.4075C70 11.1993 69.0207 10.22 67.8125 10.22ZM65.625 19.8245H58.2076C56.9994 19.8245 56.0201 20.8039 56.0201 22.012V29.429H50.7906V22.012C50.7906 20.8039 49.8113 19.8245 48.6031 19.8245H41.1867V14.595H48.6031C49.8113 14.595 50.7906 13.6155 50.7906 12.4075V4.99048H56.0201V12.4075C56.0201 13.6155 56.9994 14.595 58.2076 14.595H65.625V19.8245Z" fill="#689AD1"/>
</svg>
