<svg width="70" height="66" viewBox="0 0 70 66" fill="none" xmlns="http://www.w3.org/2000/svg">
<path d="M66.9688 30.1785C69.0085 25.8821 70 21.8663 70 17.9013C70 13.8487 68.6409 10.0852 66.0695 7.0178C63.6796 4.16666 60.3162 2.07692 56.5987 1.13356C52.369 0.059768 48.0077 0.467874 43.9862 2.31303C40.5326 3.89774 37.4721 6.52082 35 9.9902C32.5277 6.52082 29.4673 3.8976 26.0136 2.31289C21.9922 0.467873 17.631 0.0599047 13.401 1.13356C9.68365 2.07705 6.3201 4.16694 3.93039 7.0178C1.35912 10.0854 0 13.8488 0 17.9013C0 21.8663 0.991484 25.8821 3.03119 30.1785C4.79787 33.8994 7.32088 37.7531 10.7449 41.9602C16.9965 49.6414 25.3954 57.3812 33.5177 64.866C33.9365 65.2519 34.4683 65.4448 35.0001 65.4448C35.532 65.4448 36.0637 65.2519 36.4826 64.866C41.2169 60.5033 46.0444 56.0537 50.4865 51.5799L56.8256 57.919C57.2528 58.3461 57.8126 58.5598 58.3723 58.5598C58.9321 58.5598 59.4919 58.3461 59.919 57.919C60.7733 57.0648 60.7733 55.6797 59.919 54.8255L53.5329 48.4393C55.5738 46.2796 57.4993 44.1175 59.2551 41.9602C62.6791 37.7533 65.2021 33.8994 66.9688 30.1785ZM50.4376 45.344L47.1081 42.0145C48.9873 39.4968 50.1011 36.3761 50.1011 33C50.1011 24.6731 43.3267 17.8987 35 17.8987C26.6731 17.8987 19.8987 24.6731 19.8987 33C19.8987 41.3267 26.6731 48.1011 35 48.1011C38.3761 48.1011 41.4969 46.9873 44.0145 45.1081L47.393 48.4865C43.4708 52.4371 39.2193 56.3906 35.0001 60.2823C27.4616 53.3289 19.8189 46.1786 14.1379 39.1985C7.56848 31.1266 4.375 24.1603 4.375 17.9013C4.375 11.942 8.43486 6.9076 14.4776 5.37389C15.5787 5.09444 16.7629 4.93871 17.9951 4.93871C23.0807 4.93871 28.97 7.59434 33.0775 15.1647C33.4601 15.8699 34.1979 16.3091 35.0001 16.3091C35.8024 16.3091 36.5403 15.8699 36.9228 15.1647C42.0252 5.76025 49.8766 3.94094 55.5224 5.37389C61.5651 6.9076 65.625 11.9421 65.625 17.9013C65.625 24.1601 62.4315 31.1265 55.8621 39.1985C54.2042 41.2356 52.3783 43.2871 50.4376 45.344ZM35 43.7261C29.0854 43.7261 24.2737 38.9144 24.2737 33C24.2737 27.0854 29.0854 22.2737 35 22.2737C40.9145 22.2737 45.7261 27.0854 45.7261 33C45.7261 38.9144 40.9145 43.7261 35 43.7261ZM43.9528 33C43.9528 34.2081 42.9734 35.1875 41.7653 35.1875H37.1875V39.7654C37.1875 40.9735 36.2082 41.9529 35 41.9529C33.7918 41.9529 32.8125 40.9735 32.8125 39.7654V35.1875H28.2347C27.0266 35.1875 26.0472 34.2081 26.0472 33C26.0472 31.7918 27.0266 30.8125 28.2347 30.8125H32.8125V26.2347C32.8125 25.0265 33.7918 24.0472 35 24.0472C36.2082 24.0472 37.1875 25.0265 37.1875 26.2347V30.8125H41.7653C42.9734 30.8125 43.9528 31.7918 43.9528 33Z" fill="#689AD1"/>
</svg>
