<svg width="70" height="70" viewBox="0 0 70 70" fill="none" xmlns="http://www.w3.org/2000/svg">
<path d="M47.3445 0.0571289H2.1875C0.979453 0.0571289 0 1.03645 0 2.24463V67.7553C0 68.9635 0.979453 69.9428 2.1875 69.9428H47.3445C48.5525 69.9428 49.532 68.9635 49.532 67.7553V2.24463C49.532 1.03645 48.5525 0.0571289 47.3445 0.0571289ZM45.157 65.5678H4.375V4.43213H45.157V65.5678ZM8.28543 13.6236C8.28543 12.4154 9.26488 11.4361 10.4729 11.4361H21.3313C22.5393 11.4361 23.5188 12.4154 23.5188 13.6236C23.5188 14.8318 22.5393 15.8111 21.3313 15.8111H10.4729C9.26488 15.8111 8.28543 14.8318 8.28543 13.6236ZM8.28543 24.3116C8.28543 23.1034 9.26488 22.1241 10.4729 22.1241H21.3313C22.5393 22.1241 23.5188 23.1034 23.5188 24.3116C23.5188 25.5198 22.5393 26.4991 21.3313 26.4991H10.4729C9.26488 26.4991 8.28543 25.5198 8.28543 24.3116ZM8.28543 34.9996C8.28543 33.7914 9.26488 32.8121 10.4729 32.8121H21.3313C22.5393 32.8121 23.5188 33.7914 23.5188 34.9996C23.5188 36.2077 22.5393 37.1871 21.3313 37.1871H10.4729C9.26488 37.1871 8.28543 36.2077 8.28543 34.9996ZM8.28543 45.6877C8.28543 44.4795 9.26488 43.5002 10.4729 43.5002H21.3313C22.5393 43.5002 23.5188 44.4795 23.5188 45.6877C23.5188 46.8959 22.5393 47.8752 21.3313 47.8752H10.4729C9.26488 47.8752 8.28543 46.8959 8.28543 45.6877ZM8.28543 56.3757C8.28543 55.1675 9.26488 54.1882 10.4729 54.1882H21.3313C22.5393 54.1882 23.5188 55.1675 23.5188 56.3757C23.5188 57.5839 22.5393 58.5632 21.3313 58.5632H10.4729C9.26488 58.5632 8.28543 57.5839 8.28543 56.3757ZM26.9482 13.6236C26.9482 12.4154 27.9277 11.4361 29.1357 11.4361H39.9939C41.202 11.4361 42.1814 12.4154 42.1814 13.6236C42.1814 14.8318 41.202 15.8111 39.9939 15.8111H29.1357C27.9277 15.8111 26.9482 14.8318 26.9482 13.6236ZM26.9482 24.3116C26.9482 23.1034 27.9277 22.1241 29.1357 22.1241H39.9939C41.202 22.1241 42.1814 23.1034 42.1814 24.3116C42.1814 25.5198 41.202 26.4991 39.9939 26.4991H29.1357C27.9277 26.4991 26.9482 25.5198 26.9482 24.3116ZM26.9482 34.9996C26.9482 33.7914 27.9277 32.8121 29.1357 32.8121H39.9939C41.202 32.8121 42.1814 33.7914 42.1814 34.9996C42.1814 36.2077 41.202 37.1871 39.9939 37.1871H29.1357C27.9277 37.1871 26.9482 36.2077 26.9482 34.9996ZM26.9482 45.6877C26.9482 44.4795 27.9277 43.5002 29.1357 43.5002H39.9939C41.202 43.5002 42.1814 44.4795 42.1814 45.6877C42.1814 46.8959 41.202 47.8752 39.9939 47.8752H29.1357C27.9277 47.8752 26.9482 46.8959 26.9482 45.6877ZM26.9482 56.3757C26.9482 55.1675 27.9277 54.1882 29.1357 54.1882H39.9939C41.202 54.1882 42.1814 55.1675 42.1814 56.3757C42.1814 57.5839 41.202 58.5632 39.9939 58.5632H29.1357C27.9277 58.5632 26.9482 57.5839 26.9482 56.3757ZM61.5999 35.085C56.9684 35.085 53.2004 38.853 53.2004 43.4845V60.5863C53.2004 65.2178 56.9684 68.9859 61.5999 68.9859C66.2316 68.9859 70 65.2178 70 60.5863V43.4845C70 38.853 66.2318 35.085 61.5999 35.085ZM61.5999 39.46C63.8194 39.46 65.625 41.2654 65.625 43.4845V49.8479H57.5754V43.4845C57.5754 41.2654 59.3808 39.46 61.5999 39.46ZM61.5999 64.6108C59.3808 64.6108 57.5754 62.8054 57.5754 60.5862V54.2228H65.625V60.5862C65.625 62.8054 63.8194 64.6108 61.5999 64.6108Z" fill="#689AD1"/>
</svg>
