<svg width="53" height="54" viewBox="0 0 53 54" fill="none" xmlns="http://www.w3.org/2000/svg">
<path d="M48.8124 12.9009C40.9749 0.75089 24.9249 -2.84911 12.5124 4.68839C0.399943 12.2259 -3.50006 28.6509 4.33744 40.7634L4.97494 41.7384L2.34994 51.5634L12.1749 48.9384L13.1499 49.5759C17.3874 51.8634 21.9999 53.1759 26.5749 53.1759C31.4874 53.1759 36.3999 51.8634 40.6374 49.2384C52.7499 41.3634 56.3499 25.2759 48.8124 12.8259V12.9009ZM41.9499 38.1759C40.6374 40.1259 38.9874 41.4384 36.6999 41.7759C35.3874 41.7759 33.7374 42.4134 27.2124 39.8259C21.6624 37.2009 17.0499 32.9259 13.7874 28.0134C11.8374 25.7259 10.8249 22.7634 10.5249 19.8009C10.5249 17.1759 11.4999 14.8884 13.1499 13.2384C13.7874 12.6009 14.4624 12.2634 15.0999 12.2634H16.7499C17.3874 12.2634 18.0624 12.2634 18.3999 13.5759C19.0374 15.2259 20.6874 19.1634 20.6874 19.5009C21.0249 19.8384 20.8749 22.3509 19.3749 23.7759C18.5499 24.7134 18.3999 24.7509 18.7374 25.4259C20.0499 27.3759 21.6999 29.3634 23.3124 31.0134C25.2624 32.6634 27.2499 33.9759 29.5374 34.9509C30.1749 35.2884 30.8499 35.2884 31.1874 34.6134C31.5249 33.9759 33.1374 32.3259 33.8124 31.6509C34.4499 31.0134 34.7874 31.0134 35.4624 31.3134L40.7124 33.9384C41.3499 34.2759 42.0249 34.5759 42.3624 34.9134C42.6999 35.8884 42.6999 37.2009 42.0249 38.1759H41.9499Z" fill="#689AD1"/>
</svg>
